# xmcd
#
# Track frame offsets:
#	150
#	19554
#	40665
#	63054
#	81447
#	101420
#	119195
#	141469
#	164593
#	187399
#	206964
#	224971
#	244974
#
# Disc length: 3478 seconds
#
# Revision: 0
# Processed by: cddbd v1.5.2PL0 Copyright (c) Steve Scherf et al.
# Submitted via: audiograbber 1.83.01
#
DISCID=d40d940d
DTITLE=YUKIKO KONNO - CD DEMO - VENDA PROIBIDA
DYEAR=2002
DGENRE=
TTITLE0=NORA
TTITLE1=SHOWA SAIGONO AKI NO KOTO
TTITLE2=KAWA NO NAGARE NO YOUNI
TTITLE3=SHIRANAI BANKA
TTITLE4=NAMIDA NO KUSARI
TTITLE5=AISHU ERIA 
TTITLE6=NEMUTIMATA KOIBITOWA
TTITLE7=KOI NI OTITE
TTITLE8=OKUSHIRI WA IMA
TTITLE9=OTOSAN E
TTITLE10=LOVE IS ALL - AI O KIKASETE
TTITLE11=FOR YOU
TTITLE12=MOMOIRO TOIKI
EXTD=kiroiva
EXTT0=
EXTT1=
EXTT2=
EXTT3=
EXTT4=
EXTT5=
EXTT6=
EXTT7=
EXTT8=
EXTT9=
EXTT10=
EXTT11=
EXTT12=
PLAYORDER=
